<?xml version="1.0" encoding="UTF-8"?>
<svg version="1.1" viewBox="0 0 4096 4096" xmlns="http://www.w3.org/2000/svg">
<defs>
<linearGradient id="a" x1="540.44" x2="123.3" y1="434.66" y2="423.95" gradientTransform="matrix(7.116 0 0 7.1148 -320.64 -376.33)" gradientUnits="userSpaceOnUse">
<stop stop-color="#EE7905" offset="0"/>
<stop stop-color="#FFB114" offset="1"/>
</linearGradient>
</defs>
<path d="m656.91 640.78c-6.9666-19.395-12.795-38.256-15.428-58.761-6.3475-49.427-5.0595-190.04 0.71161-239.1 9.1654-77.961 45.08-140.96 106.96-189.21 66.393-51.777 153.4-77.529 235.01-94.278 170.3-34.952 350.22-44.047 523.69-50.248 170.19-6.0839 339.7-8.4318 510.01-8.7598 143.31-0.27677 287.15-1.5738 430.41 2.4311 89.078 2.4902 178.23 8.3656 267.18 13.605 84.51 4.9789 170.37 7.6861 254.38 18.269 26.977 4.6154 54.338 7.1966 81.393 11.581 73.245 11.867 143.07 29.024 212.12 56.263l3.1596 2.017c14.865 9.356 31.965 15.265 47.058 24.433 59.027 35.862 98.82 86.725 123.35 150.63 27.468 92.416 11.571 193.34 15.172 288.57-7.4435 82.34-46.133 132.7-106.18 186.25 13.528 16.784 24.429 34.45 22.401 56.975-1.0816 11.996-5.764 23.237-11.877 33.511 31.709 14.23 62.301 30.828 91.519 49.654 56.238 36.122 108.75 78.562 161.81 119.13 66.264 50.658 139.27 102.2 196.5 162.94 16.239 17.232 31.261 37.296 39.729 59.601 10.724 28.232 11.606 59.587-0.8397 87.42-22.786 50.935-81.82 94.228-133.03 112.87-69.623 25.336-151.42 13.988-221.31-4.1905 66.435 92.941 127.35 224.6 148.38 337.38 19.228 103.13 14.723 207.49 14.73 311.9l-0.078 365.16-0.1351 447.49c-0.028 136.67 4.5045 265.54-18.096 401.19-22.857 137.15-80.767 260.14-164.64 370.48-16.687 21.949-35.246 48.729-56.345 66.182-25.966 26.538-52.723 56.008-81.856 78.854-16.346 20.142-44.34 35.937-65.055 51.362-149.31 111.2-331.33 174.14-515.2 197.59-78.81 10.053-158.05 14.827-237.27 20.299-273.89 19.26-548.73 20.825-822.82 4.6957-191.19-10.039-385.87-16.407-570.56-71.397-123.11-36.648-237.27-100.99-338.28-179.61-188.41-147.38-310.12-363.88-338.06-601.39-10.069-81.23-5.9775-166.44-6.5112-248.25l-0.9322-440.92 0.0783-418.49c0.0569-112.72-7.1801-230.2 15.314-341.17 24.678-121.73 87.1-256.03 163.36-353.71-73.423 21.935-171.37 28.552-244.07 1.0743-48.44-18.306-102.12-63.18-122.52-111.62-12.452-29.569-10.783-64.489 2.2828-93.716 9.6401-21.572 26.912-41.11 43.4-57.701 73.73-74.186 345.13-282.1 437.19-317.34-3.9067-8.8935-7.0022-17.446-7.9557-27.214-2.6614-27.3 7.5999-47.463 24.436-67.833-22.202-18.541-42.689-36.592-60.408-59.679-12.232-17.837-23.419-35.453-32.271-55.232z" fill="#472313" stroke-width="7.1154"/>
<path d="m3332.8 3811c0.733-4.9022 1.836-9.2707 4.9101-13.248 12.197-15.766 58.003-63.051 76.946-65.606-25.966 26.538-52.723 56.008-81.856 78.854z" fill="#2f1711" stroke-width="7.1154"/>
<path d="m3241.8 1476.1c23.383-19.872 46.802-36.648 73.736-51.383 34.363 46.46 68.897 93.41 98.614 143.04 16.459 27.485 30.136 56.477 46.233 84.126 4.7678 0.7187 6.0131-0.313 8.9591 3.8421 16.694 23.514 50.574 131.77 45.286 158.41-0.6119 3.1091-1.4659 5.6776-2.5689 8.6659 2.4479 38.576 8.2333 76.684 9.8273 115.47 3.3872 82.304 0.3558 166.08 0.3274 248.52l-0.028 487.08v295.07c-0.114 91.703 1.7434 183.88-12.496 274.73-16.466 105.08-48.197 199.62-105.69 289.72-123.46 193.42-330.54 325.67-553.19 374.4-44.931 9.8397-90.729 14.244-136.4 19.096-62.863 6.9868-125.88 12.614-188.98 16.876-341.83 26.225-685.23 24.112-1026.7-6.3037-73.516-6.3038-149.75-9.1781-222.03-23.806-120.81-24.447-237.58-67.698-341.46-134.61-175.71-111.06-299.67-287.77-344.27-490.74-9.749-46.417-15.691-93.553-17.769-140.94-4.1913-82.105-2.0565-165.28-2.1704-247.53l-0.15655-424.9-0.17079-342.76c-0.0498-113.15-6.5894-230.78 19.277-341.75 31.901-136.83 109.22-247.82 184.24-363.88 38.519 22.099 65.325 55.602 96.942 85.776 24.707 23.564 52.737 43.379 83.201 58.811 101.89 51.141 219.86 44.496 325.28 7.9827 77.963-27.008 138.81-58.911 224.94-49.939 88.993 9.2777 139.59 50.85 214.94 90.365 35.032 18.342 72.128 32.451 110.5 42.006 118.71 29.156 232.61 6.8374 338.82-50.693 30.827-16.698 59.739-36.968 89.818-54.962 97.191-58.135 182.53-68.018 290.88-40.903 15.477-6.254 29.403 1.7005 43.849 7.8476 16.972 7.2287 111.98 50.594 118.18 62.034l-0.7542 3.0166c63.375 32.081 176.51 38.783 247.15 28.175-4.6111-1.2949-7.116-0.1281-11.08-3.2657l1.6509-1.5724c26.607 2.6111 131.83-37.538 160.41-50.394l8.3401 3.3652c7.5429-4.4253 15.242-8.6942 22.437-13.675 26.116 34.13 64.614 105.11 110.13 111.14 16.751 2.2199 31.673-4.0625 44.319-14.792 13.798-11.718 24.486-27.257 25.155-45.841 1.3236-36.727-56.501-95.132-77.543-124.91z" fill="url(#a)" stroke-width="7.1154"/>
<path d="m3460.4 1651.9c4.7678 0.7187 6.0131-0.313 8.9591 3.8421 16.694 23.514 50.574 131.77 45.286 158.41-0.6119 3.1091-1.4659 5.6776-2.5689 8.6659-11.243-59.43-28.556-115.09-51.677-170.92z" fill="#2f1711" stroke-width="7.1154"/>
<path d="m2958 1616c-4.6111-1.2949-7.1161-0.1281-11.08-3.2657l1.6508-1.5724c26.607 2.6111 131.83-37.538 160.41-50.394l8.34 3.3652c-50.474 27.812-102.29 43.834-159.32 51.867z" fill="#2f1711" stroke-width="7.1154"/>
<path d="m2549.6 1515c15.477-6.254 29.404 1.7005 43.849 7.8476 16.972 7.2287 111.98 50.594 118.18 62.034l-0.7543 3.0166c-30.82-10.295-60.643-28.708-89.733-43.329-23.269-11.697-47.044-20.896-71.545-29.569z" fill="#2f1711" stroke-width="7.1154"/>
<path d="m1019.4 1970.2c-12.873 76.37-10.546 154.14-10.311 231.3l0.8539 241.7c0.121 38.825 2.4764 79.23-0.7116 117.9-1.2951 15.738-3.7217 34.614-11.129 48.672-14.595 27.691-40.995 51.305-71.125 60.106-24.906 7.2784-50.538 3.8349-73.11-8.8082-26.884-15.062-47.044-41.949-55.633-71.369-4.7322-16.2-6.5823-33.077-7.5786-49.875-2.3554-39.758-1.3307-80.063-1.5086-119.91l-0.86104-203.14c-0.43408-100.96-7.0093-224.59 4.1558-322.37 5.9632-52.237 18.872-109.58 44.475-155.89 15.598-28.21 40.447-56.982 72.648-65.656 27.361-7.3567 52.317 0.2562 75.978 14.03 38.811 36.072 59.96 75.474 61.668 129.06 1.6793 52.507-19.014 103.06-27.81 154.25z" fill="#fedc9d" stroke-width="7.1154"/>
<path d="m890.85 2897.7c23.319-1.3803 44.269 4.1195 63.432 17.851 26.016 18.641 41.664 47.299 46.717 78.505 6.013 37.14 0.8539 81.301-22.273 111.94-19.206 25.443-45.792 37.018-76.54 40.761-19.135 0.4268-37.992-4.6033-54.374-14.5-27.205-16.378-45.023-44.382-52.965-74.656-8.9093-34.856-3.4086-71.824 15.264-102.57 18.708-31.191 45.55-48.836 80.738-57.324z" fill="#fedc9d" stroke-width="7.1154"/>
<path d="m2868.3 732.26c-205.77 27.058-416.98 32.394-624.36 36.791-262.05 7.5844-524.33 2.4475-785.89-15.396-129.08-7.8263-257.76-21.337-385.65-40.498-60.856-9.7046-185.56-27.392-236.41-52.529-19.114-9.3275-35.573-23.322-47.862-40.683-7.8276-11.234-14.218-25.457-16.673-39.025-6.5254-36.079-5.8494-207.43 1.5869-243.38 7.7636-37.576 34.064-70.356 65.788-91.011 42.639-27.759 94.544-42.29 143.79-53.357 179.28-40.286 399.19-49.737 583.39-56.974 299.93-10.033 600.1-10.74 900.08-2.1181 156.96 5.4101 315.19 13.17 471.4 29.981 51.257 5.4827 102.19 13.664 152.58 24.509 71.288 12.016 163.04 35.754 207.35 98.333 10.93 15.146 18.552 32.425 22.358 50.714 7.1019 33.746 9.1086 204.42 3.245 237.86-5.7001 32.486-26.372 58.982-53.235 77.132-55.854 37.737-323.78 73.66-401.49 79.643z" fill="#fedc9d" stroke-width="7.1154"/>
<path d="m3090.1 188.57c71.288 12.016 163.04 35.754 207.35 98.333 10.93 15.146 18.552 32.425 22.358 50.714 7.1019 33.746 9.1086 204.42 3.245 237.86-5.7001 32.486-26.372 58.982-53.235 77.132-55.854 37.737-323.78 73.66-401.49 79.643 5.6501-18.634 22.992-33.888 29.033-53.475 17.235-55.908 15.726-216.87 12.695-278.68-60.479 2.9526-120.62 12.43-181 17.396-213.82 17.574-429.88 20.626-644.35 21.544-335.86 1.4372-693.09-5.208-1024.3-59.807-29.98-4.9377-117.69-13.995-137.95-32.849-4.2838-3.9914-6.1625-8.0255-6.3048-13.853-0.12098-4.8864 3.1097-9.5061 6.81-12.578 16.68-13.846 46.211-6.1508 65.845-3.7886 462.79 55.683 934.07 61.639 1399.6 46.1 206.17-6.88 435.3-13.305 636.09-56.587 27.155-5.8534 99.959-16.849 119.87-34.067 4.2768-3.7018 7.2371-8.9049 7.0948-14.697-0.6832-28.13-43.913-47.584-60.031-66.748-0.4412-0.52223-0.8539-1.063-1.2809-1.5944z" fill="#f3b352" stroke-width="7.1154"/>
<path d="m797.24 949.07c70.321 37.438 140.08 58.854 217.81 75.453 41.152 7.4492 82.453 14.08 123.87 19.886 225.47 33.312 456.09 47.185 683.85 52.557 67.695-0.1138 135.89-2.0775 203.53-0.2846 111.59-1.4443 223.17-3.6926 334.73-6.7235 2.2274 29.242 1.5087 67.719 25.561 88.466 19.904 17.168 49.314 25.016 72.797 36.414 63.34 30.736 115.58 87.135 123.36 158.82 0.7685 7.0722 2.1064 14.094-1.0745 20.733l-4.7962 2.042c-12.759-3.4791-25.575-6.7947-38.427-9.9394-110.73-26.631-222.33-3.7638-320.78 50.963-34.257 19.046-66.136 41.892-99.696 62.048-105.87 63.606-226.56 72.158-337.64 16.072-28.77-14.528-55.683-32.742-83.5-49-51.847-30.615-109.42-50.273-169.18-57.758-49.008-6.1259-98.735-3.1091-146.65 8.8936-106.71 26.631-206.38 93.916-320.43 64.41-128.43-33.219-161.69-168.62-300.51-187.85-114-15.788-216.11 55.858-323.52 28.054-21.391-5.5425-52.094-17.609-62.877-37.993-2.9596-5.5922-2.8706-10.003-0.62905-15.717 4.4012-11.227 14.606-21.081 23.365-29.178 50.737-46.922 111.33-87.384 166.88-128.69 65.261-48.537 163.23-129.58 233.95-161.68z" fill="#fedc9d" stroke-width="7.1154"/>
<path d="m1822.8 1097c67.695-0.1138 135.89-2.0775 203.53-0.2846-5.6643 54.599-50.865 222.44-81.535 264.81-8.0696 11.156-19.761 24.475-34.356 26.268-6.8171 0.8395-12.908-1.359-18.224-5.5211-42.782-33.561-61.639-227.58-69.417-285.28z" fill="#f3b352" stroke-width="7.1154"/>
<path d="m1015.1 1024.5c41.152 7.4492 82.453 14.08 123.87 19.886-2.8393 0.1067-12.275 0.1921-14.289 1.9565-4.8033 4.2191-10.518 21.48-14.453 27.698-14.823 23.408-38.562 43.194-60.643 59.437-20.9 15.361-49.535 32.543-76.711 27.484-8.2048-1.5225-12.403-4.5392-17.064-11.27-8.4538-35.602 52.644-84.41 58.764-121.09 0.2277-1.3589 0.3487-2.7321 0.5266-4.1052z" fill="#f3b352" stroke-width="7.1154"/>
<path d="m2361 1090c133.83-4.5108 267.48-13.34 400.74-26.467 48.026-4.774 96.657-8.6374 144.33-16.208 50.666 135.48 100.08 277.07 174.36 401.77-85.969 50.501-188.35 65.179-285.05 40.86-48.503-12.7-90.146-38.52-134.87-60.035-26.948-12.97-55.583-23.159-83.656-33.44l4.7962-2.042c3.1809-6.6381 1.843-13.66 1.0745-20.733-7.785-71.689-60.024-128.09-123.36-158.82-23.483-11.398-52.893-19.246-72.797-36.414-24.052-20.747-23.333-59.224-25.561-88.466z" fill="#f3b352" stroke-width="7.1154"/>
<path d="m3296 950.83c0.6903-0.0783 1.3806-0.22767 2.0708-0.2419 15.157-0.34863 36.164 14.358 48.617 22.298 60.728 38.733 117.83 86.239 175.32 129.68 43.045 32.095 85.57 64.887 127.56 98.362 20.743 16.698 43.272 33.618 61.447 53.119 5.892 6.3179 14.488 14.906 14.168 24.062-4.1486 9.5196-9.1796 15.02-17.328 21.451-83.087 65.613-197.36 4.2191-287.68-7.499l-2.882-0.3557c-93.974-10.679-168.12 22.774-240.18 80.02-56.409-112.3-96.358-230.13-145.6-345.2 88.758-17.858 181.81-37.879 264.48-75.694z" fill="#f3b352" stroke-width="7.1154"/>
<path d="m885.26 810.59c24.351 1.053 50.381 8.1465 74.412 12.565 35.153 6.4674 70.449 12.152 105.87 17.04 129.37 16.962 259.17 30.508 389.25 40.626 327.32 22.305 655.65 25.756 983.36 10.352 133.84-6.2824 266.66-18.89 400.21-27.84 5.9134 14.856 24.387 50.302 20.636 65.286l-7.0663 2.2412c-214.38 32.323-436.06 38.527-652.51 41.956-352.26 5.5709-683.98-1.5297-1034.1-48.125-65.816-8.7512-214.06-29.79-270.31-56.271-8.2119-3.8704-15.769-10.26-18.694-19.096-4.6041-13.881 2.4906-26.837 8.9662-38.733z" fill="#ae541c" stroke-width="7.1154"/>
<path d="m3201.2 807.43 7.5002 1.0672c4.8176 4.1124 6.5184 7.3923 8.2333 13.319 2.5191 8.6943 2.7611 15.937-2.1775 23.828-22.053 35.247-179.42 55.453-224.15 65.385-8.8167-21.444-17.15-43.087-24.992-64.908 78.248-8.0184 158.59-22.547 235.59-38.69z" fill="#ae541c" stroke-width="7.1154"/>
</svg>
